<svg xmlns="http://www.w3.org/2000/svg" viewBox="0 0 512 512" role="img" aria-labelledby="title desc">
  <title id="title">Fitora Fuels icon</title>
  <desc id="desc">Green square icon with the Fitora Fuels initials and fuel drop.</desc>
  <rect width="512" height="512" rx="104" fill="#276749" />
  <path
    fill="#f7f8f2"
    d="M327.2 109.1c45.8 55.4 76.8 105.7 76.8 158.4 0 70.7-57.3 128-128 128s-128-57.3-128-128c0-52.7 31-103 76.8-158.4 20.7-25.2 61.7-25.2 82.4 0Z"
    opacity=".96"
  />
  <path
    fill="#d77a2f"
    d="M338.3 264.9c0 38.6-31.2 69.8-69.8 69.8-24.7 0-45.8-12.7-58.3-32 12 6.9 25.2 8 38.3 3.1 32-12.2 23.1-47.4 39.1-70.7 8.9-13.1 23.8-23.7 44.7-31.7-2.2 18.6 6 36.1 6 61.5Z"
  />
  <text
    x="256"
    y="282"
    fill="#276749"
    font-family="Arial, Helvetica, sans-serif"
    font-size="112"
    font-weight="900"
    letter-spacing="0"
    text-anchor="middle"
  >
    FF
  </text>
</svg>
